<svg width="32" height="32" viewBox="0 0 32 32" fill="none" xmlns="http://www.w3.org/2000/svg">
<g clip-path="url(#clip0_0_7)">
<path d="M13.8756 7.4138L5.33337 16.0005L13.8756 24.5871C13.9527 24.6884 14.0508 24.772 14.163 24.8321C14.2752 24.8923 14.3991 24.9276 14.5262 24.9357C14.6533 24.9438 14.7806 24.9245 14.8996 24.8791C15.0186 24.8337 15.1264 24.7633 15.2158 24.6726C15.3052 24.582 15.3741 24.4731 15.4177 24.3535C15.4614 24.2339 15.4789 24.1063 15.469 23.9793C15.459 23.8524 15.422 23.7291 15.3602 23.6177C15.2985 23.5063 15.2136 23.4095 15.1112 23.3338L8.72004 16.8894L25.7245 16.8894C25.9602 16.8894 26.1863 16.7957 26.353 16.629C26.5197 16.4623 26.6134 16.2362 26.6134 16.0005C26.6134 15.7647 26.5197 15.5386 26.353 15.3719C26.1863 15.2052 25.9602 15.1116 25.7245 15.1116L8.72004 15.1116L15.1112 8.66714C15.2774 8.49976 15.3703 8.2732 15.3694 8.03733C15.3686 7.80145 15.2741 7.57556 15.1067 7.40936C14.9393 7.24315 14.7128 7.15025 14.4769 7.15109C14.241 7.15192 14.0151 7.24642 13.8489 7.4138L13.8756 7.4138Z" fill="#0B0226"/>
</g>
<defs>
<clipPath id="clip0_0_7">
<rect width="32" height="32" fill="white" transform="translate(0 32) rotate(-90)"/>
</clipPath>
</defs>
</svg>
