<svg width="185" height="51" viewBox="0 0 185 51" fill="none" xmlns="http://www.w3.org/2000/svg">
<rect x="1" y="1" width="183" height="49" rx="24.5" stroke="#0960D9" stroke-width="2"/>
<path d="M79.6111 35.5C79.1546 35.5 78.7723 35.34 78.464 35.02C78.1557 34.7 78.0011 34.3044 78 33.8333C77.9989 33.3622 78.1536 32.9666 78.464 32.6466C78.7744 32.3266 79.1568 32.1666 79.6111 32.1666H105.389C105.845 32.1666 106.228 32.3266 106.538 32.6466C106.847 32.9666 107.001 33.3622 107 33.8333C106.999 34.3044 106.844 34.7005 106.536 35.0216C106.228 35.3428 105.845 35.5022 105.389 35.5H79.6111ZM79.6111 27.1667C79.1546 27.1667 78.7723 27.0067 78.464 26.6867C78.1557 26.3667 78.0011 25.9711 78 25.5C77.9989 25.0289 78.1536 24.6333 78.464 24.3133C78.7744 23.9933 79.1568 23.8333 79.6111 23.8333H105.389C105.845 23.8333 106.228 23.9933 106.538 24.3133C106.847 24.6333 107.001 25.0289 107 25.5C106.999 25.9711 106.844 26.3672 106.536 26.6883C106.228 27.0094 105.845 27.1689 105.389 27.1667H79.6111ZM79.6111 18.8333C79.1546 18.8333 78.7723 18.6733 78.464 18.3533C78.1557 18.0333 78.0011 17.6378 78 17.1667C77.9989 16.6956 78.1536 16.3 78.464 15.98C78.7744 15.66 79.1568 15.5 79.6111 15.5H105.389C105.845 15.5 106.228 15.66 106.538 15.98C106.847 16.3 107.001 16.6956 107 17.1667C106.999 17.6378 106.844 18.0339 106.536 18.355C106.228 18.6761 105.845 18.8356 105.389 18.8333H79.6111Z" fill="#0960D9"/>
</svg>
