<svg width="72" height="72" viewBox="0 0 72 72" fill="none" xmlns="http://www.w3.org/2000/svg">
<circle cx="35.9999" cy="36" r="34.5" transform="rotate(-180 35.9999 36)" stroke="#0B0226" stroke-width="3"/>
<g clip-path="url(#clip0_95_424)">
<path d="M32.2822 20.9732L17.3333 35.9998L32.2822 51.0265C32.4172 51.2038 32.5887 51.35 32.7852 51.4553C32.9816 51.5605 33.1983 51.6223 33.4207 51.6365C33.6431 51.6507 33.866 51.6169 34.0742 51.5375C34.2824 51.4581 34.4711 51.3349 34.6276 51.1762C34.784 51.0175 34.9045 50.827 34.981 50.6177C35.0574 50.4084 35.088 50.185 35.0706 49.9629C35.0532 49.7407 34.9883 49.5249 34.8803 49.33C34.7723 49.1351 34.6236 48.9656 34.4444 48.8332L23.26 37.5554L53.0178 37.5554C53.4303 37.5554 53.826 37.3915 54.1177 37.0998C54.4094 36.8081 54.5733 36.4124 54.5733 35.9998C54.5733 35.5873 54.4094 35.1916 54.1177 34.8999C53.826 34.6082 53.4303 34.4443 53.0178 34.4443L23.26 34.4443L34.4444 23.1665C34.7353 22.8736 34.8979 22.4771 34.8964 22.0643C34.8949 21.6516 34.7296 21.2563 34.4367 20.9654C34.1437 20.6745 33.7473 20.512 33.3345 20.5134C32.9217 20.5149 32.5264 20.6803 32.2355 20.9732L32.2822 20.9732Z" fill="#0B0226"/>
</g>
<defs>
<clipPath id="clip0_95_424">
<rect width="56" height="56" fill="white" transform="translate(8 64) rotate(-90)"/>
</clipPath>
</defs>
</svg>
