<svg width="56" height="56" viewBox="0 0 56 56" fill="none" xmlns="http://www.w3.org/2000/svg">
<path fill-rule="evenodd" clip-rule="evenodd" d="M13.5054 32.7136C13.6056 32.747 13.7087 32.7712 13.8134 32.786C14.4735 34.3415 15.13 35.8986 15.7827 37.4573C16.9564 40.262 18.1394 43.1506 18.3984 43.9813C18.7227 45.0033 19.0634 45.6986 19.4367 46.1746C19.6304 46.4173 19.852 46.632 20.1134 46.7953C20.2495 46.8805 20.3952 46.9494 20.5474 47.0006C21.294 47.2806 21.9754 47.164 22.4024 47.0216C22.653 46.9361 22.8914 46.8185 23.1117 46.6716L23.1234 46.667L29.7174 42.5556L37.3357 48.3936C37.4477 48.48 37.569 48.5523 37.6997 48.6106C38.6144 49.0073 39.501 49.1473 40.3364 49.0353C41.167 48.9186 41.8274 48.571 42.3197 48.1766C42.885 47.721 43.3357 47.1392 43.6357 46.478L43.6567 46.4266L43.6637 46.408L43.6684 46.3986V46.394L43.6707 46.3916C43.7113 46.2913 43.7425 46.1874 43.764 46.0813L50.7174 11.023C50.7393 10.9107 50.7503 10.7966 50.75 10.6823C50.75 9.65563 50.3627 8.67796 49.455 8.08763C48.6757 7.58129 47.81 7.55796 47.2617 7.59996C46.6737 7.64663 46.1277 7.79129 45.7614 7.90796C45.5563 7.97295 45.3539 8.04612 45.1547 8.12729L45.129 8.13896L6.12971 23.4363L6.12504 23.4386C5.99309 23.4872 5.8631 23.5409 5.73538 23.5996C5.42612 23.7387 5.12946 23.9042 4.84871 24.0943C4.31904 24.456 3.09871 25.45 3.30638 27.0926C3.46971 28.3993 4.36571 29.2043 4.91404 29.5916C5.21271 29.804 5.49738 29.9556 5.70738 30.056C5.80071 30.1026 6.00138 30.182 6.08771 30.2193L6.11104 30.2263L13.5054 32.7136ZM46.494 11.359H46.4894C46.4693 11.3679 46.4491 11.3764 46.4287 11.3846L7.38271 26.703C7.36262 26.7111 7.3424 26.7189 7.32204 26.7263L7.29871 26.7333C7.22738 26.7613 7.15731 26.7925 7.08871 26.8266C7.15365 26.8638 7.22065 26.8973 7.28938 26.927L14.6207 29.3956C14.7517 29.4398 14.877 29.4993 14.994 29.573L39.207 15.398L39.2304 15.3863C39.3244 15.3291 39.421 15.2762 39.5197 15.2276C39.6877 15.1413 39.956 15.0153 40.2594 14.922C40.4694 14.8566 41.0924 14.6723 41.7644 14.8893C42.1208 15.0016 42.4385 15.212 42.6811 15.4962C42.9237 15.7805 43.0815 16.1273 43.1364 16.497C43.2233 16.8207 43.2257 17.1613 43.1434 17.4863C42.98 18.128 42.532 18.6273 42.1237 19.01C41.7737 19.3366 37.233 23.714 32.7554 28.0353L26.6584 33.9153L25.5734 34.9653L39.2747 45.47C39.4596 45.5476 39.6605 45.5796 39.8604 45.5633C39.9611 45.5496 40.0558 45.5075 40.1334 45.442C40.228 45.3621 40.3091 45.2676 40.3737 45.162L40.3784 45.1596L47.1217 11.156C46.9093 11.2071 46.701 11.2741 46.4987 11.3566L46.494 11.359ZM26.7517 40.2783L24.017 38.183L23.3544 42.3946L26.7517 40.2783ZM21.5087 34.025L24.227 31.4L30.324 25.5153L32.5944 23.3266L17.381 32.233L17.4627 32.4243C18.4222 34.691 19.3711 36.9621 20.3094 39.2376L20.9697 35.0376C21.0295 34.6481 21.2195 34.2926 21.5087 34.025Z" fill="#140085"/>
</svg>
