<svg width="56" height="56" viewBox="0 0 56 56" fill="none" xmlns="http://www.w3.org/2000/svg">
<g clip-path="url(#clip0_109_158)">
<path d="M28 4.66699C40.887 4.66699 51.3333 15.1133 51.3333 28.0003C51.3333 40.8873 40.887 51.3337 28 51.3337C24.0285 51.3395 20.1219 50.3273 16.653 48.3937L15.9413 47.9783L8.86665 50.0597C8.48165 50.1731 8.07406 50.1863 7.68252 50.0981C7.29097 50.0099 6.92844 49.8232 6.6293 49.5556C6.33016 49.288 6.10431 48.9484 5.97318 48.5691C5.84205 48.1897 5.80997 47.7832 5.87998 47.388L5.94065 47.1337L8.02198 40.059C5.82155 36.422 4.66099 32.2511 4.66665 28.0003C4.66665 15.1133 15.113 4.66699 28 4.66699ZM28 9.33366C24.6578 9.33305 21.3767 10.2298 18.4994 11.9302C15.6221 13.6307 13.2541 16.0724 11.6428 19.0005C10.0314 21.9286 9.2357 25.2356 9.33882 28.5763C9.44193 31.9169 10.4401 35.1685 12.229 37.9917C12.691 38.7197 12.8893 39.6157 12.733 40.5047L12.642 40.885L11.613 44.3873L15.1153 43.3583C16.1256 43.0597 17.1756 43.2417 18.0086 43.7713C20.4547 45.3202 23.2276 46.2788 26.108 46.5714C28.9884 46.864 31.8974 46.4826 34.605 45.4574C37.3126 44.4321 39.7446 42.7911 41.7087 40.664C43.6729 38.5369 45.1153 35.9821 45.922 33.2016C46.7288 30.421 46.8776 27.4909 46.3569 24.6429C45.8362 21.7949 44.6601 19.1071 42.9216 16.7919C41.1832 14.4767 38.93 12.5976 36.3403 11.3032C33.7505 10.0088 30.8952 9.33449 28 9.33366ZM21.238 16.763C21.4963 16.6511 21.7793 16.6084 22.0592 16.6391C22.339 16.6698 22.606 16.7728 22.834 16.938C24.01 17.7967 24.9433 18.9493 25.746 20.074L26.509 21.18L26.866 21.705C27.072 22.0062 27.1731 22.3668 27.1537 22.7312C27.1343 23.0955 26.9954 23.4434 26.7586 23.721L26.5836 23.8983L24.4276 25.499C24.3239 25.5741 24.2509 25.6843 24.2221 25.8092C24.1934 25.934 24.2109 26.065 24.2713 26.178C24.7613 27.0647 25.627 28.3877 26.621 29.3817C27.6173 30.3757 29.001 31.2997 29.9483 31.8433C30.1536 31.96 30.401 31.9227 30.569 31.771L30.6576 31.666L32.06 29.531C32.3174 29.188 32.6976 28.9581 33.1209 28.8893C33.5442 28.8206 33.9776 28.9184 34.3303 29.1623L35.5973 30.0467C36.8573 30.945 38.0683 31.911 39.0273 33.136C39.2056 33.3658 39.319 33.6392 39.3555 33.9278C39.3921 34.2163 39.3504 34.5094 39.235 34.7763C38.311 36.9323 35.9706 38.7687 33.5393 38.68L33.1683 38.6567L32.7226 38.6147C32.6385 38.6047 32.5545 38.5938 32.4706 38.582L31.9153 38.4887C29.7593 38.0827 26.3036 36.86 22.722 33.2807C19.1426 29.699 17.92 26.2433 17.514 24.0873L17.4206 23.532L17.3623 23.0467L17.332 22.6383C17.3283 22.58 17.3252 22.5217 17.3226 22.4633C17.234 20.0273 19.0796 17.687 21.238 16.763Z" fill="#140085"/>
</g>
<defs>
<clipPath id="clip0_109_158">
<rect width="56" height="56" fill="white"/>
</clipPath>
</defs>
</svg>
