<svg width="56" height="56" viewBox="0 0 56 56" fill="none" xmlns="http://www.w3.org/2000/svg">
<path fill-rule="evenodd" clip-rule="evenodd" d="M54.6117 39.3517C53.3424 36.7954 51.6698 34.4602 49.658 32.4357C48.9852 31.6753 48.2807 30.9436 47.5464 30.2424L47.4577 30.156C47.1851 29.892 46.916 29.6244 46.6504 29.3534C49.4006 25.5285 51.7538 21.4333 53.6737 17.1314L53.7507 16.9587L53.8044 16.7767C54.0587 15.9297 54.348 14.3197 53.3214 12.8637C52.2574 11.361 50.5564 11.0904 49.4154 11.0904H44.1724C43.0746 11.0403 41.9891 11.3389 41.0712 11.9432C40.1534 12.5476 39.4502 13.4268 39.0624 14.455C37.934 17.1422 36.5213 19.7009 34.8484 22.0874V15.9437C34.8484 15.1504 34.7737 13.8204 33.922 12.7004C32.9047 11.3564 31.4324 11.0904 30.4104 11.0904H22.0897C21.0039 11.0654 19.9502 11.4589 19.1466 12.1895C18.343 12.9201 17.8512 13.9318 17.773 15.015L17.766 15.12V15.225C17.766 16.3567 18.214 17.192 18.5734 17.717C18.7344 17.9527 18.9047 18.1674 19.0144 18.3027L19.0377 18.333C19.1544 18.4777 19.2314 18.5734 19.3084 18.6807C19.5137 18.956 19.8054 19.3854 19.8894 20.4914V23.9284C18.2191 21.1314 16.8496 18.1656 15.8037 15.0804L15.785 15.029L15.7664 14.98C15.4817 14.2357 15.0267 13.153 14.1144 12.327C13.0504 11.3587 11.7904 11.0904 10.6447 11.0904H5.32471C4.16504 11.0904 2.76737 11.361 1.72437 12.46C0.700041 13.5427 0.583374 14.84 0.583374 15.526V15.8387L0.648707 16.142C2.12174 22.9805 5.15726 29.3854 9.51771 34.8554C11.5113 37.9991 14.2177 40.6287 17.4176 42.5308C20.6174 44.433 24.2205 45.5541 27.9347 45.8034L28.0304 45.8104H28.1284C29.8224 45.8104 31.5887 45.6634 32.9164 44.779C34.706 43.5844 34.8484 41.7527 34.8484 40.838V38.1827C35.308 38.556 35.8774 39.0554 36.575 39.7274C37.4197 40.572 38.0917 41.3047 38.668 41.944L38.976 42.2847C39.424 42.784 39.865 43.2764 40.2664 43.68C40.7704 44.1864 41.3934 44.744 42.1727 45.157C43.0197 45.6027 43.9087 45.8057 44.8514 45.8057H50.1737C51.296 45.8057 52.9037 45.5397 54.0354 44.2284C55.2674 42.8004 55.174 41.048 54.7867 39.7904L54.7167 39.564L54.6117 39.3517ZM41.265 39.599C40.5419 38.7906 39.7973 38.0017 39.032 37.233L39.025 37.226C35.8587 34.174 34.3817 33.6444 33.3364 33.6444C32.7787 33.6444 32.165 33.705 31.766 34.2044C31.5864 34.4425 31.4686 34.7215 31.423 35.0164C31.3668 35.3587 31.3418 35.7055 31.3484 36.0524V40.838C31.3484 41.433 31.2504 41.6827 30.975 41.8647C30.6087 42.1097 29.827 42.308 28.1494 42.308C24.9625 42.0912 21.8727 41.1211 19.1338 39.4774C16.3949 37.8338 14.0853 35.5635 12.3947 32.8534L12.376 32.823L12.3527 32.795C8.29065 27.7391 5.45968 21.8079 4.08337 15.47C4.09271 15.1667 4.15804 14.9824 4.26537 14.8704C4.37504 14.7537 4.64337 14.5904 5.32471 14.5904H10.6447C11.235 14.5904 11.543 14.721 11.7647 14.9194C12.012 15.148 12.2314 15.533 12.4927 16.219C13.7994 20.0597 15.5634 23.653 17.2364 26.2944C18.0717 27.6127 18.893 28.7117 19.635 29.4887C20.006 29.876 20.3677 30.198 20.7154 30.4267C21.049 30.646 21.4294 30.821 21.8214 30.821C22.0267 30.821 22.267 30.7977 22.498 30.6974C22.7475 30.5872 22.9529 30.3966 23.0814 30.156C23.3217 29.7174 23.3894 29.071 23.3894 28.224V20.3537C23.2657 18.445 22.6894 17.3694 22.1294 16.6064C22.016 16.4538 21.8993 16.3036 21.7794 16.156L21.749 16.1187C21.6495 15.9978 21.5546 15.8733 21.4644 15.7454C21.3495 15.6027 21.2804 15.4286 21.266 15.246C21.2843 15.0606 21.3728 14.8892 21.5134 14.7669C21.6539 14.6446 21.8359 14.5806 22.022 14.588H30.4104C30.891 14.588 31.052 14.7047 31.1337 14.8144C31.2504 14.966 31.3484 15.281 31.3484 15.9437V26.509C31.3484 27.7644 31.927 28.6137 32.767 28.6137C33.733 28.6137 34.4307 28.028 35.6487 26.81L35.6697 26.7867L35.6884 26.7657C38.4207 23.4344 40.653 19.7227 42.315 15.7477L42.3244 15.7197C42.4493 15.3685 42.6856 15.0678 42.9974 14.8635C43.3091 14.6591 43.6792 14.5624 44.051 14.588H49.4177C50.1457 14.588 50.3837 14.7747 50.463 14.8844C50.5447 15.001 50.603 15.2507 50.463 15.7407C48.5464 20.0255 46.1771 24.0931 43.3954 27.874L43.3767 27.902C43.1084 28.315 42.812 28.7724 42.77 29.295C42.7234 29.8597 42.966 30.3707 43.393 30.9214C43.7034 31.3787 44.345 32.0064 44.996 32.6434L45.0567 32.704C45.738 33.3714 46.4777 34.0947 47.0704 34.7947L47.0867 34.811L47.103 34.8297C48.8703 36.5925 50.34 38.6303 51.4547 40.8637C51.632 41.4704 51.5247 41.783 51.3847 41.944C51.2237 42.1307 50.862 42.3057 50.176 42.3057H44.8514C44.4885 42.3145 44.1294 42.2302 43.8084 42.0607C43.415 41.8319 43.0579 41.5456 42.749 41.2114C42.4154 40.8777 42.0537 40.474 41.6104 39.9817L41.265 39.599Z" fill="#140085"/>
</svg>
